<?xml version="1.0" encoding="UTF-8" standalone="no"?>
<svg viewBox="0 0 84 84" version="1.1" xmlns="http://www.w3.org/2000/svg" xmlns:xlink="http://www.w3.org/1999/xlink" xmlns:sketch="http://www.bohemiancoding.com/sketch/ns">
    <!-- Generator: Sketch 3.3.2 (12043) - http://www.bohemiancoding.com/sketch -->
    <title>Oval 57 + Group</title>
    <desc>Created with Sketch.</desc>
    <defs></defs>
    <g id="Page-1" stroke="none" stroke-width="1" fill="none" fill-rule="evenodd" sketch:type="MSPage">
        <g id="Desktop-HD" sketch:type="MSArtboardGroup" transform="translate(-414.000000, -337.000000)">
            <g id="Group" sketch:type="MSLayerGroup" transform="translate(330.000000, 337.000000)">
                <g id="Oval-57-+-Group" transform="translate(84.000000, 0.000000)" sketch:type="MSShapeGroup">
                    <circle id="Oval-57" fill-opacity="0.87" fill="#FFFFFF" cx="42" cy="42" r="42"></circle>
                    <g id="Group" transform="translate(8.000000, 15.000000)">
                        <path d="M21.5,20.5 C21.5,20.5 24.9405088,18.0190283 29.9384289,18.0190283 C34.9363489,18.0190283 36.4196415,22.961657 44.7769604,22.9616567 C53.1342793,22.9616565 57.3660622,15.3504509 57.3660622,15.3504509" id="Line" stroke="#DB6458" stroke-width="8" stroke-linecap="square"></path>
                        <path d="M12.0068745,40.7747845 C12.0068745,40.7747845 16.8254294,44.2284564 23.3754391,44.2284564 C29.9254489,44.2284564 36.6411562,33.871478 43.3068043,33.871478 C55.9275642,33.871478 57.7410321,43.5860213 55.72226,47.5611142" id="Line" stroke="#DB6458" stroke-width="8" stroke-linecap="square" transform="translate(34.215408, 40.716296) rotate(6.000000) translate(-34.215408, -40.716296) "></path>
                        <circle id="Oval-71" fill="#DB6458" cx="44.5" cy="8.5" r="8.5"></circle>
                        <path d="M39.5,24.5 L37.5132528,29.5472523 C36.9070846,31.0871987 35.6947482,34.1670914 35.6947482,34.1670914" id="Line" stroke="#DB6458" stroke-width="10" stroke-linecap="square"></path>
                        <g id="Line-+-Line-Copy-+-Line-Copy-4" transform="translate(0.000000, 11.000000)" stroke="#DB6458" stroke-width="3" stroke-linecap="square">
                            <path d="M13.5,1.5 L4.5,1.5" id="Line"></path>
                            <path d="M11.5,9.5 L2.5,9.5" id="Line-Copy"></path>
                            <path d="M9.5,17.5 L0.5,17.5" id="Line-Copy-4"></path>
                        </g>
                    </g>
                </g>
            </g>
        </g>
    </g>
</svg>